<?xml version="1.0" encoding="UTF-8"?>
<svg id="Layer_1" data-name="Layer 1" xmlns="http://www.w3.org/2000/svg" viewBox="0 0 24 24">
  <defs>
    <style>
      .cls-1 {
        fill: #fff;
      }

      .cls-2 {
        fill: #0a66c2;
      }
    </style>
  </defs>
  <path class="cls-2" d="M12-.03C5.37-.03,0,5.34,0,11.97s5.37,12,12,12,12-5.37,12-12S18.63-.03,12-.03Zm-2,16h-2v-6h2v6Zm-1-6.89c-.61,0-1.1-.5-1.1-1.11s.49-1.11,1.1-1.11,1.1,.5,1.1,1.11-.49,1.11-1.1,1.11Zm8,6.89h-2v-2.86c0-1.88-2-1.72-2,0v2.86h-2v-6h2v1.09c.87-1.62,4-1.74,4,1.55v3.36Z"/>
  <g>
    <rect class="cls-1" x="8" y="9.97" width="2" height="6"/>
    <path class="cls-1" d="M13,13.11c0-1.72,2-1.88,2,0v2.86h2v-3.36c0-3.28-3.13-3.16-4-1.55v-1.09h-2v6h2v-2.86Z"/>
    <path class="cls-1" d="M9,9.08c.61,0,1.1-.5,1.1-1.11s-.49-1.11-1.1-1.11-1.1,.5-1.1,1.11,.49,1.11,1.1,1.11Z"/>
  </g>
</svg>