<?xml version="1.0" encoding="UTF-8"?>
<svg id="Layer_2" data-name="Layer 2" xmlns="http://www.w3.org/2000/svg" xmlns:xlink="http://www.w3.org/1999/xlink" viewBox="0 0 580.08 371.61">
  <defs>
    <style>
      .cls-1 {
        fill: url(#linear-gradient-2);
      }

      .cls-2 {
        fill: #fafafb;
      }

      .cls-3 {
        fill: url(#linear-gradient-5);
      }

      .cls-4 {
        fill: none;
      }

      .cls-5 {
        fill: url(#linear-gradient-3);
      }

      .cls-6 {
        fill: url(#linear-gradient);
      }

      .cls-7 {
        fill: url(#linear-gradient-4);
      }
    </style>
    <linearGradient id="linear-gradient" x1="11.7" y1="407.04" x2="527.31" y2="11.04" gradientUnits="userSpaceOnUse">
      <stop offset="0" stop-color="#4e00ff"/>
      <stop offset="1" stop-color="#0db7ff"/>
    </linearGradient>
    <linearGradient id="linear-gradient-2" x1="84.11" y1="501.33" x2="599.73" y2="105.33" xlink:href="#linear-gradient"/>
    <linearGradient id="linear-gradient-3" x1="-26.79" y1="356.93" x2="488.82" y2="-39.07" xlink:href="#linear-gradient"/>
    <linearGradient id="linear-gradient-4" x1="1.59" y1="393.89" x2="517.2" y2="-2.11" xlink:href="#linear-gradient"/>
    <linearGradient id="linear-gradient-5" x1="131.54" y1="563.08" x2="647.15" y2="167.08" xlink:href="#linear-gradient"/>
  </defs>
  <g id="Layer_2-2" data-name="Layer 2">
    <g>
      <g>
        <path class="cls-2" d="M44.32,44.58h32.6c11.33,0,19.6,2.63,24.8,7.9,5.2,5.27,7.8,13.37,7.8,24.3v8.6c0,14.53-4.8,23.73-14.4,27.6v.4c5.33,1.6,9.1,4.87,11.3,9.8,2.2,4.93,3.3,11.54,3.3,19.8v24.6c0,4,.13,7.23,.4,9.7,.27,2.47,.93,4.9,2,7.3h-22.4c-.8-2.27-1.33-4.4-1.6-6.4-.27-2-.4-5.6-.4-10.8v-25.6c0-6.4-1.03-10.87-3.1-13.4-2.07-2.53-5.63-3.8-10.7-3.8h-7.6v60h-22V44.58Zm30,60c4.4,0,7.7-1.13,9.9-3.4,2.2-2.27,3.3-6.07,3.3-11.4v-10.8c0-5.07-.9-8.73-2.7-11-1.8-2.27-4.63-3.4-8.5-3.4h-10v40h8Z"/>
        <path class="cls-2" d="M131.92,177.38c-5.73-6.13-8.6-14.8-8.6-26V77.78c0-11.2,2.87-19.87,8.6-26,5.73-6.13,14-9.2,24.8-9.2s19.06,3.07,24.8,9.2c5.73,6.13,8.6,14.8,8.6,26v73.6c0,11.2-2.87,19.87-8.6,26-5.73,6.13-14,9.2-24.8,9.2s-19.07-3.07-24.8-9.2Zm36.2-24.6V76.38c0-9.2-3.8-13.8-11.4-13.8s-11.4,4.6-11.4,13.8v76.4c0,9.2,3.8,13.8,11.4,13.8s11.4-4.6,11.4-13.8Z"/>
        <path class="cls-2" d="M204.92,44.58h33.2c11.33,0,19.6,2.63,24.8,7.9,5.2,5.27,7.8,13.37,7.8,24.3v5.6c0,7.2-1.17,13.07-3.5,17.6-2.33,4.53-5.9,7.8-10.7,9.8v.4c10.93,3.73,16.4,13.47,16.4,29.2v12c0,10.8-2.83,19.03-8.5,24.7-5.67,5.67-13.97,8.5-24.9,8.5h-34.6V44.58Zm30.6,57c4.4,0,7.7-1.13,9.9-3.4,2.2-2.27,3.3-6.07,3.3-11.4v-7.8c0-5.07-.9-8.73-2.7-11-1.8-2.27-4.63-3.4-8.5-3.4h-10.6v37h8.6Zm4,63c3.87,0,6.73-1.03,8.6-3.1,1.87-2.07,2.8-5.63,2.8-10.7v-12.2c0-6.4-1.1-10.83-3.3-13.3-2.2-2.47-5.83-3.7-10.9-3.7h-9.8v43h12.6Z"/>
        <path class="cls-2" d="M285.72,44.58h60v20h-38v37h30.2v20h-30.2v43h38v20h-60V44.58Z"/>
        <path class="cls-2" d="M358.32,44.58h32.6c11.33,0,19.6,2.63,24.8,7.9,5.2,5.27,7.8,13.37,7.8,24.3v8.6c0,14.53-4.8,23.73-14.4,27.6v.4c5.33,1.6,9.1,4.87,11.3,9.8,2.2,4.93,3.3,11.54,3.3,19.8v24.6c0,4,.13,7.23,.4,9.7,.27,2.47,.93,4.9,2,7.3h-22.4c-.8-2.27-1.33-4.4-1.6-6.4-.27-2-.4-5.6-.4-10.8v-25.6c0-6.4-1.03-10.87-3.1-13.4-2.07-2.53-5.63-3.8-10.7-3.8h-7.6v60h-22V44.58Zm30,60c4.4,0,7.7-1.13,9.9-3.4,2.2-2.27,3.3-6.07,3.3-11.4v-10.8c0-5.07-.9-8.73-2.7-11-1.8-2.27-4.63-3.4-8.5-3.4h-10v40h8Z"/>
        <path class="cls-2" d="M455.72,64.58h-23v-20h68v20h-23v120h-22V64.58Z"/>
      </g>
      <g>
        <path class="cls-4" d="M516.48,42.58V122.58h13.56v88.74H15V41.03c0-14.35,11.68-26.03,26.04-26.03H504c14.36,0,26.04,11.68,26.04,26.03v1.55h-13.56Z"/>
        <path class="cls-6" d="M156.99,284.19c-3.22-1.87-6.88-2.8-10.97-2.8s-7.75,.93-10.97,2.8c-3.22,1.87-5.78,4.48-7.68,7.84-1.9,3.37-2.85,7.32-2.85,11.85s.95,8.39,2.85,11.79c1.9,3.4,4.44,6.03,7.63,7.9s6.82,2.8,10.92,2.8,7.86-.93,11.08-2.8,5.76-4.5,7.62-7.9,2.8-7.33,2.8-11.79-.93-8.48-2.8-11.85c-1.87-3.36-4.41-5.98-7.62-7.84Z"/>
        <path class="cls-1" d="M352.18,284.19c-3.22-1.87-6.88-2.8-10.97-2.8s-7.75,.93-10.97,2.8c-3.22,1.87-5.78,4.48-7.68,7.84-1.9,3.37-2.85,7.32-2.85,11.85s.95,8.39,2.85,11.79c1.9,3.4,4.44,6.03,7.63,7.9,3.18,1.87,6.82,2.8,10.92,2.8s7.86-.93,11.08-2.8,5.76-4.5,7.63-7.9,2.8-7.33,2.8-11.79-.93-8.48-2.8-11.85c-1.87-3.36-4.41-5.98-7.63-7.84Z"/>
        <path class="cls-5" d="M92.74,296.37c3.99-3.33,5.98-8.03,5.98-14.1s-1.99-10.9-5.98-14.26c-3.99-3.36-9.82-5.05-17.5-5.05h-20.41v38.4h20.41c7.68,0,13.51-1.66,17.5-4.99Z"/>
        <path class="cls-7" d="M545.04,42.58v-1.55c0-22.66-18.37-41.03-41.04-41.03H41.04C18.37,0,0,18.37,0,41.03V330.58c0,8.78,2.75,16.91,7.45,23.58,1.65,2.34,3.53,4.5,5.62,6.45,7.33,6.83,17.16,11,27.97,11H504c10.81,0,20.64-4.17,27.97-11,.53-.49,1.04-1,1.54-1.52,3.57-3.69,6.45-8.05,8.44-12.87,1.99-4.82,3.09-10.1,3.09-15.64V122.58h-15v88.74H15V41.03c0-14.35,11.68-26.03,26.04-26.03H504c14.36,0,26.04,11.68,26.04,26.03v1.55h15Zm-121.33,290.16h-7.79v-57.6h7.79v57.6Zm19.75-44.1c2.56-4.39,6.04-7.83,10.43-10.32,4.38-2.48,9.39-3.73,15.03-3.73s10.77,1.26,15.19,3.79c4.43,2.52,7.9,5.96,10.43,10.31,2.52,4.35,3.78,9.42,3.78,15.2s-1.26,10.77-3.78,15.19c-2.53,4.43-6.02,7.9-10.48,10.43-4.46,2.52-9.51,3.78-15.14,3.78s-10.65-1.26-15.03-3.78c-4.39-2.53-7.87-6.02-10.43-10.48s-3.84-9.51-3.84-15.14,1.28-10.86,3.84-15.25Zm-27.65-35.72c1.1-1.06,2.45-1.59,4.06-1.59s2.97,.51,4.06,1.54c1.1,1.02,1.65,2.3,1.65,3.84s-.53,2.96-1.59,4.06c-1.06,1.09-2.43,1.64-4.12,1.64s-2.96-.55-4.06-1.64c-1.09-1.1-1.64-2.42-1.64-3.95s.55-2.84,1.64-3.9Zm-29.4-1.59h7.79v81.41h-7.79v-81.41Zm-70.77,37.31c2.56-4.39,6.03-7.83,10.42-10.32,4.39-2.48,9.4-3.73,15.04-3.73s10.76,1.26,15.19,3.79c4.43,2.52,7.9,5.96,10.42,10.31,2.53,4.35,3.79,9.42,3.79,15.2s-1.26,10.77-3.79,15.19c-2.52,4.43-6.01,7.9-10.47,10.43-4.47,2.52-9.51,3.78-15.14,3.78s-10.65-1.26-15.04-3.78c-4.39-2.53-7.86-6.02-10.42-10.48s-3.84-9.51-3.84-15.14,1.28-10.86,3.84-15.25Zm-43.23-13.5h10.31v-7.24c0-5.12,1.5-9.25,4.5-12.4,3-3.14,7.32-4.72,12.95-4.72,2.19,0,4.31,.3,6.36,.88,2.05,.59,3.77,1.5,5.16,2.74l-2.63,5.82c-1.1-.95-2.38-1.66-3.84-2.14-1.47-.48-3.04-.71-4.72-.71-3.29,0-5.82,.91-7.57,2.74-1.76,1.83-2.64,4.54-2.64,8.12v6.91h17.78v6.47h-17.56v51.13h-7.79v-51.13h-10.31v-6.47Zm-44.55,0h10.32v-12.73h7.79v12.73h17.55v6.47h-17.55v34.46c0,3.36,.86,5.96,2.58,7.79,1.72,1.83,4.18,2.74,7.4,2.74,3.44,0,6.29-.99,8.56-2.96l2.74,5.59c-1.53,1.39-3.38,2.42-5.54,3.08-2.15,.65-4.37,.98-6.63,.98-5.42,0-9.59-1.46-12.51-4.39-2.93-2.92-4.39-7.05-4.39-12.39v-34.9h-10.32v-6.47Zm-36.64,0h7.46v11.13c1.65-3.51,4.09-6.25,7.35-8.22,3.8-2.31,8.52-3.46,14.15-3.46v7.57c-.29,0-.58,0-.87-.05-.3-.04-.59-.06-.88-.06-6.07,0-10.83,1.85-14.26,5.54-3.44,3.7-5.16,8.95-5.16,15.75v29.4h-7.79v-57.6Zm-70.77,13.5c2.56-4.39,6.03-7.83,10.42-10.32,4.39-2.48,9.4-3.73,15.03-3.73s10.77,1.26,15.2,3.79c4.43,2.52,7.9,5.96,10.42,10.31,2.53,4.35,3.79,9.42,3.79,15.2s-1.26,10.77-3.79,15.19c-2.52,4.43-6.01,7.9-10.47,10.43-4.47,2.52-9.51,3.78-15.15,3.78s-10.64-1.26-15.03-3.78c-4.39-2.53-7.86-6.02-10.42-10.48s-3.84-9.51-3.84-15.14,1.28-10.86,3.84-15.25Zm-73.73-32.7h28.74c6.51,0,12.11,1.04,16.79,3.13,4.68,2.08,8.29,5.08,10.81,8.99,2.52,3.92,3.78,8.65,3.78,14.21s-1.26,10.08-3.78,13.99c-2.52,3.92-6.13,6.93-10.81,9.05-4.68,2.13-10.28,3.19-16.79,3.19h-20.62v24.24h-8.12v-76.8Z"/>
        <path class="cls-3" d="M480,284.19c-3.22-1.87-6.88-2.8-10.97-2.8s-7.75,.93-10.97,2.8c-3.22,1.87-5.78,4.48-7.68,7.84-1.9,3.37-2.85,7.32-2.85,11.85s.95,8.39,2.85,11.79c1.9,3.4,4.44,6.03,7.63,7.9,3.18,1.87,6.82,2.8,10.92,2.8s7.86-.93,11.08-2.8,5.76-4.5,7.63-7.9,2.8-7.33,2.8-11.79-.93-8.48-2.8-11.85c-1.87-3.36-4.41-5.98-7.63-7.84Z"/>
        <path class="cls-2" d="M92.25,259.07c-4.68-2.08-10.28-3.13-16.79-3.13h-28.75v76.8h8.12v-24.25h-3.62l3.31-3.52-3.31-3.62h3.62v-38.4h-3.62l3.62-3.84v3.84h20.41c7.68,0,13.51,1.68,17.5,5.05,3.99,3.37,5.98,8.12,5.98,14.26s-1.99,10.77-5.98,14.1c-3.99,3.33-9.82,4.99-17.5,4.99h-20.41v7.13h20.63c6.51,0,12.1-1.06,16.79-3.18,4.68-2.12,8.28-5.14,10.81-9.05,2.52-3.91,3.79-8.58,3.79-13.99s-1.26-10.29-3.79-14.21-6.13-6.91-10.81-9Z"/>
        <polygon class="cls-2" points="54.84 301.36 51.22 301.36 54.53 304.98 54.84 304.65 54.84 301.36"/>
        <polygon class="cls-2" points="51.22 262.96 54.84 262.96 54.84 259.12 51.22 262.96"/>
        <polygon class="cls-2" points="54.84 304.65 54.53 304.98 54.84 305.31 54.84 304.65"/>
        <polygon class="cls-2" points="54.53 304.98 51.22 308.5 54.84 308.5 54.84 305.31 54.53 304.98"/>
        <path class="cls-2" d="M171.52,288.69c-2.52-4.35-5.99-7.79-10.42-10.31-4.43-2.53-9.49-3.79-15.2-3.79s-10.64,1.25-15.03,3.73c-4.39,2.49-7.86,5.93-10.42,10.32-2.56,4.39-3.84,9.47-3.84,15.25s1.28,10.68,3.84,15.14,6.03,7.95,10.42,10.48c4.39,2.52,9.4,3.78,15.03,3.78s10.68-1.26,15.15-3.78c4.46-2.53,7.95-6,10.47-10.43,2.53-4.42,3.79-9.49,3.79-15.19s-1.26-10.85-3.79-15.2Zm-6.91,26.99c-1.86,3.4-4.4,6.04-7.62,7.9-3.22,1.87-6.92,2.8-11.09,2.8s-7.73-.93-10.91-2.8c-3.18-1.86-5.73-4.5-7.63-7.9-1.9-3.4-2.85-7.33-2.85-11.79s.95-8.49,2.85-11.85c1.9-3.37,4.46-5.98,7.68-7.85,3.22-1.86,6.88-2.8,10.97-2.8s7.76,.94,10.98,2.8c3.22,1.87,5.76,4.48,7.62,7.85,1.87,3.36,2.8,7.31,2.8,11.85s-.93,8.39-2.8,11.79Z"/>
        <path class="cls-2" d="M198.68,286.27v4.56l-.77-2.74c.23-.63,.49-1.23,.77-1.82v-11.13h-7.46v57.6h7.79v-29.41c0-6.8,1.72-12.05,5.16-15.75,3.44-3.69,8.19-5.54,14.26-5.54,.29,0,.58,.02,.88,.05,.29,.04,.58,.05,.88,.05v-7.57c-5.63,0-10.35,1.15-14.15,3.46-3.26,1.97-5.7,4.72-7.35,8.22Z"/>
        <path class="cls-2" d="M198.68,290.83v-4.56c-.28,.59-.54,1.19-.77,1.82l.77,2.74Z"/>
        <rect class="cls-2" x="238.18" y="262.41" width="7.79" height="12.73"/>
        <rect class="cls-2" x="227.86" y="275.14" width="10.31" height="6.47"/>
        <path class="cls-2" d="M255.95,326.6c-3.22,0-5.69-.91-7.41-2.74-1.72-1.83-2.58-4.42-2.58-7.79v-34.45h-7.79v34.89c0,5.34,1.46,9.47,4.39,12.4,2.92,2.93,7.09,4.39,12.51,4.39,2.27,0,4.48-.33,6.64-.99,2.16-.66,4-1.68,5.54-3.07l-2.74-5.6c-2.27,1.97-5.12,2.96-8.56,2.96Z"/>
        <rect class="cls-2" x="245.97" y="275.14" width="17.56" height="6.47"/>
        <rect class="cls-2" x="238.18" y="275.14" width="7.79" height="6.47"/>
        <polygon class="cls-2" points="282.72 281.61 290.51 281.61 290.51 280.63 290.29 277.01 290.29 275.14 282.72 275.14 282.72 281.61"/>
        <path class="cls-2" d="M300.17,250.78c-5.63,0-9.95,1.57-12.95,4.72-3,3.15-4.5,7.28-4.5,12.4v7.24h7.57v-6.91c0-3.58,.88-6.29,2.63-8.12,1.76-1.83,4.28-2.74,7.57-2.74,1.68,0,3.25,.24,4.72,.71,1.46,.48,2.74,1.19,3.84,2.14l2.63-5.81c-1.39-1.24-3.11-2.16-5.16-2.74-2.05-.58-4.17-.88-6.36-.88Z"/>
        <polygon class="cls-2" points="290.51 280.63 290.51 281.61 308.07 281.61 308.07 275.14 290.29 275.14 290.29 277.01 290.51 280.63"/>
        <rect class="cls-2" x="272.41" y="275.14" width="10.31" height="6.47"/>
        <rect class="cls-2" x="282.72" y="281.61" width="7.79" height="51.13"/>
        <path class="cls-2" d="M366.71,288.69c-2.52-4.35-5.99-7.79-10.42-10.31-4.43-2.53-9.49-3.79-15.19-3.79s-10.65,1.25-15.04,3.73c-4.39,2.49-7.86,5.93-10.42,10.32-2.56,4.39-3.84,9.47-3.84,15.25s1.28,10.68,3.84,15.14,6.03,7.95,10.42,10.48c4.39,2.52,9.4,3.78,15.04,3.78s10.67-1.26,15.14-3.78c4.46-2.53,7.95-6,10.47-10.43,2.53-4.42,3.79-9.49,3.79-15.19s-1.26-10.85-3.79-15.2Zm-6.91,26.99c-1.86,3.4-4.41,6.04-7.62,7.9-3.22,1.87-6.92,2.8-11.08,2.8s-7.74-.93-10.92-2.8c-3.18-1.86-5.73-4.5-7.63-7.9-1.9-3.4-2.85-7.33-2.85-11.79s.95-8.49,2.85-11.85c1.9-3.37,4.46-5.98,7.68-7.85,3.22-1.86,6.88-2.8,10.97-2.8s7.76,.94,10.98,2.8c3.21,1.87,5.76,4.48,7.62,7.85,1.87,3.36,2.8,7.31,2.8,11.85s-.93,8.39-2.8,11.79Z"/>
        <rect class="cls-2" x="386.41" y="251.33" width="7.79" height="81.41"/>
        <path class="cls-2" d="M419.87,251.33c-1.61,0-2.96,.53-4.06,1.59-1.1,1.06-1.65,2.36-1.65,3.89s.55,2.85,1.65,3.95c1.1,1.1,2.45,1.65,4.06,1.65s3.05-.55,4.11-1.65c1.06-1.1,1.59-2.45,1.59-4.06s-.55-2.82-1.65-3.84c-1.1-1.02-2.45-1.54-4.06-1.54Z"/>
        <rect class="cls-2" x="415.92" y="275.14" width="7.79" height="57.6"/>
        <path class="cls-2" d="M494.54,288.69c-2.53-4.35-6-7.79-10.43-10.31-4.42-2.53-9.49-3.79-15.19-3.79s-10.65,1.25-15.03,3.73c-4.39,2.49-7.87,5.93-10.43,10.32-2.56,4.39-3.84,9.47-3.84,15.25s1.28,10.68,3.84,15.14,6.04,7.95,10.43,10.48c4.38,2.52,9.39,3.78,15.03,3.78s10.68-1.26,15.14-3.78c4.46-2.53,7.95-6,10.48-10.43,2.52-4.42,3.78-9.49,3.78-15.19s-1.26-10.85-3.78-15.2Zm-6.91,26.99c-1.87,3.4-4.41,6.04-7.63,7.9-3.22,1.87-6.91,2.8-11.08,2.8s-7.74-.93-10.92-2.8c-3.18-1.86-5.72-4.5-7.62-7.9-1.91-3.4-2.86-7.33-2.86-11.79s.95-8.49,2.86-11.85c1.9-3.37,4.46-5.98,7.68-7.85,3.21-1.86,6.87-2.8,10.97-2.8s7.75,.94,10.97,2.8c3.22,1.87,5.76,4.48,7.63,7.85,1.86,3.36,2.79,7.31,2.79,11.85s-.93,8.39-2.79,11.79Z"/>
        <path class="cls-2" d="M531.97,360.61h0c.53-.49,1.04-1,1.54-1.52h0c-.5,.52-1.01,1.03-1.54,1.52Z"/>
      </g>
      <g>
        <path class="cls-2" d="M530.38,61.71l6.1-13.1h5.1l-4.2,12h3.6v10.6h-10.6v-9.5Z"/>
        <path class="cls-2" d="M551.38,115.06c-2.73-3.03-4.1-7.38-4.1-13.05v-4h10.4v4.8c0,4.53,1.9,6.8,5.7,6.8,1.87,0,3.28-.55,4.25-1.65,.97-1.1,1.45-2.88,1.45-5.35,0-2.93-.67-5.52-2-7.75-1.33-2.23-3.8-4.92-7.4-8.05-4.53-4-7.7-7.62-9.5-10.85-1.8-3.23-2.7-6.88-2.7-10.95,0-5.53,1.4-9.82,4.2-12.85,2.8-3.03,6.87-4.55,12.2-4.55s9.25,1.52,11.95,4.55c2.7,3.03,4.05,7.38,4.05,13.05v2.9h-10.4v-3.6c0-2.4-.47-4.15-1.4-5.25-.93-1.1-2.3-1.65-4.1-1.65-3.67,0-5.5,2.23-5.5,6.7,0,2.53,.68,4.9,2.05,7.1,1.37,2.2,3.85,4.87,7.45,8,4.6,4,7.77,7.63,9.5,10.9,1.73,3.27,2.6,7.1,2.6,11.5,0,5.73-1.42,10.13-4.25,13.2-2.83,3.07-6.95,4.6-12.35,4.6s-9.37-1.52-12.1-4.55Z"/>
      </g>
    </g>
  </g>
</svg>