<?xml version="1.0" encoding="UTF-8"?>
<svg id="Layer_2" data-name="Layer 2" xmlns="http://www.w3.org/2000/svg" viewBox="0 0 227.72 255.89">
  <defs>
    <style>
      .cls-1 {
        fill: #b14896;
      }

      .cls-2 {
        fill: #782479;
      }

      .cls-3 {
        fill: #f7f9fa;
      }
    </style>
  </defs>
  <g id="Layer_1-2" data-name="Layer 1">
    <g>
      <path class="cls-3" d="M2.72,191.01c1.27,4.56,4.82,7.05,8.6,9.23,30.09,17.39,60.22,34.73,90.31,52.12,8.25,4.77,16.33,4.69,24.58-.08,29.95-17.31,59.92-34.57,89.93-51.79,7.83-4.49,11.57-11.2,11.58-20.09,.02-34.97,.02-69.95-.01-104.92,0-4.02-.52-7.96-3.02-11.34-1.48-3.78-4.48-6.15-7.82-8.08-30.54-17.64-61.09-35.26-91.67-52.83-7.56-4.34-15.26-4.27-22.8,.06C71.81,20.87,41.26,38.49,10.72,56.13,3.42,60.35,.06,66.96,.04,75.21-.02,110.35,0,145.48,.03,180.62c0,3.66,.35,7.3,2.69,10.39Z"/>
      <path class="cls-2" d="M224.68,64.13c2.5,3.38,3.02,7.32,3.02,11.34,.03,34.97,.03,69.95,.01,104.92,0,8.9-3.75,15.6-11.58,20.09-30,17.21-59.98,34.47-89.93,51.79-8.25,4.77-16.33,4.85-24.58,.08-30.09-17.39-60.22-34.72-90.31-52.12-3.77-2.18-7.32-4.67-8.6-9.23,2.57-.27,4.56-1.81,6.7-3.04,12.89-7.39,25.79-14.75,38.69-22.13,.95,1.35,1.92,2.69,2.84,4.06,29.99,44.82,96.03,44.8,125.91,.04,2.21-3.31,2.45-5.01-1.48-7.09-8.22-4.35-16.28-9.05-24.16-14-3.44-2.16-4.98-1.59-7.34,1.59-16.1,21.64-49.04,19.79-62.13-3.32,.58-1.31,1.79-1.87,2.95-2.53,8.76-5.02,17.52-10.02,26.23-15.12,11.68-6.84,23.79-12.94,35-20.57,11.5-5.48,22.29-12.21,33.17-18.78,15.19-8.66,30.39-17.32,45.58-25.98Zm-49.95,72.29c-.21,2.24-.19,4.23,2.89,3.83,2.35-.31,3.44,.68,3.11,3.09-.34,2.51,.94,3.19,3.19,3.01,2.05-.17,4.66,.61,4.33-2.96-.32-3.38,1.94-3.26,4.19-3.13,2.14,.13,5.07-.9,4.75,3.05-.28,3.48,2.17,2.97,4.31,3.03,2.02,.06,3.76-.07,3.37-2.81-.39-2.69,.89-3.58,3.41-3.29,3.4,.38,2.53-2.16,2.64-3.99,.12-1.92,.16-3.88-2.68-3.44-3.77,.58-3.5-1.95-3.35-4.32,.14-2.06-1.09-5.1,2.99-4.62,3.53,.41,2.97-2.06,3.06-4.2,.1-2.25-.12-4.03-3.09-3.64-1.93,.25-3.3-.26-2.98-2.63,.34-2.48-.5-3.64-3.25-3.46-2.42,.15-4.78-.23-4.47,3.42,.32,3.77-2.61,2.58-4.48,2.63-1.94,.05-4.79,.96-4.41-2.73,.33-3.27-1.62-3.28-4-3.31-2.31-.02-3.98,.24-3.56,3.15,.29,2.01-.39,3.28-2.69,2.93-3.19-.49-3.44,1.37-3.4,3.86,.04,2.37,.03,4.37,3.32,4,3.75-.43,2.78,2.45,2.72,4.35-.06,1.84,1.24,4.85-2.57,4.51-3.02-.27-3.86,1.09-3.37,3.68Z"/>
      <path class="cls-1" d="M48.11,165.84c-12.9,7.37-25.8,14.74-38.69,22.13-2.14,1.23-4.13,2.76-6.7,3.04C.38,187.92,.03,184.28,.03,180.62,0,145.48-.02,110.35,.04,75.21c.02-8.25,3.38-14.87,10.68-19.08C41.26,38.49,71.81,20.87,102.39,3.29c7.54-4.34,15.24-4.41,22.8-.06,30.58,17.57,61.13,35.19,91.67,52.83,3.34,1.93,6.34,4.3,7.82,8.08-15.19,8.66-30.39,17.32-45.58,25.98-14.68-27.62-47.96-42.48-80.83-36.1-36.77,7.14-63.47,43.42-59.68,80.61,1.13,11.13,4.61,21.35,9.53,31.23Z"/>
      <path class="cls-3" d="M48.11,165.84c-4.92-9.88-8.4-20.09-9.53-31.23-3.78-37.18,22.91-73.46,59.68-80.61,32.87-6.38,66.15,8.48,80.83,36.1-10.88,6.57-21.67,13.3-33.17,18.78-9.34-17.46-32.73-23.75-50.66-13.61-18.33,10.37-24.49,33.96-13.52,51.83,13.08,23.11,46.03,24.96,62.13,3.32,2.36-3.17,3.9-3.75,7.34-1.59,7.87,4.96,15.93,9.65,24.16,14,3.93,2.08,3.69,3.78,1.48,7.09-29.87,44.76-95.92,44.78-125.91-.04-.92-1.37-1.89-2.71-2.84-4.06Z"/>
      <path class="cls-1" d="M81.74,147.11c-10.97-17.87-4.81-41.46,13.52-51.83,17.93-10.14,41.32-3.85,50.66,13.61-11.21,7.63-23.32,13.73-35,20.57-8.71,5.1-17.48,10.1-26.23,15.12-1.16,.66-2.37,1.22-2.95,2.53Z"/>
      <path class="cls-3" d="M174.72,136.42c-.49-2.59,.35-3.95,3.37-3.68,3.81,.34,2.51-2.67,2.57-4.51,.06-1.91,1.03-4.78-2.72-4.35-3.29,.37-3.28-1.63-3.32-4-.04-2.49,.2-4.35,3.4-3.86,2.3,.35,2.97-.92,2.69-2.93-.41-2.91,1.25-3.18,3.56-3.15,2.38,.02,4.34,.03,4,3.31-.38,3.7,2.47,2.78,4.41,2.73,1.86-.05,4.8,1.14,4.48-2.63-.31-3.65,2.05-3.27,4.47-3.42,2.75-.17,3.59,.98,3.25,3.46-.32,2.37,1.05,2.88,2.98,2.63,2.97-.39,3.19,1.39,3.09,3.64-.1,2.13,.47,4.61-3.06,4.2-4.09-.48-2.86,2.57-2.99,4.62-.16,2.37-.43,4.9,3.35,4.32,2.85-.44,2.8,1.52,2.68,3.44-.11,1.83,.76,4.37-2.64,3.99-2.53-.28-3.8,.6-3.41,3.29,.39,2.75-1.35,2.88-3.37,2.81-2.14-.07-4.59,.45-4.31-3.03,.31-3.95-2.61-2.92-4.75-3.05-2.26-.14-4.51-.25-4.19,3.13,.34,3.57-2.27,2.79-4.33,2.96-2.26,.18-3.54-.5-3.19-3.01,.33-2.4-.76-3.39-3.11-3.09-3.08,.4-3.1-1.59-2.89-3.83Zm18.21-12.8c-3.56-.66-5.15,.45-5.01,4.41,.12,3.31,.36,5.22,4.51,5.04,3.54-.16,5.46-.49,5.26-4.82-.17-3.59-.89-5.45-4.76-4.62Z"/>
      <path class="cls-1" d="M192.93,123.62c3.87-.82,4.6,1.03,4.76,4.62,.2,4.33-1.72,4.66-5.26,4.82-4.15,.19-4.39-1.72-4.51-5.04-.15-3.96,1.45-5.07,5.01-4.41Z"/>
    </g>
  </g>
</svg>