<?xml version="1.0" encoding="UTF-8"?>
<svg id="Layer_2" data-name="Layer 2" xmlns="http://www.w3.org/2000/svg" viewBox="0 0 192.12 191.96">
  <defs>
    <style>
      .cls-1 {
        fill: #f7f9fa;
      }

      .cls-2 {
        fill: #010101;
      }
    </style>
  </defs>
  <g id="Layer_1-2" data-name="Layer 1">
    <path class="cls-2" d="M95.9,.02c-23,0-46,.04-68.99-.02-7.15-.02-13.69,2.13-18.74,6.86C2.66,12.01,.03,18.92,.04,26.67c.03,21.86,.01,43.72,.01,65.57,0,24.11,.09,48.21-.06,72.32-.04,6.91,1.91,13.19,6.07,18.36,5.17,6.41,12.58,9,20.77,9.02,26.75,.05,53.5,.02,80.24,.02,19.12,0,38.25,.01,57.37,0,16.6-.01,27.66-11.09,27.66-27.73,0-45.46,0-90.93,0-136.39,0-16.83-11.04-27.79-27.97-27.8-22.75,0-45.5,0-68.24,0Zm11.56,123.85c.72-.93,1.54-.74,2.23-.83,19.27-2.42,26.44-15.91,23.94-33.66-.57-4.07-3.93-7.1-4.91-10.68-1-3.66,1.12-8.03-.18-12.11-.08-.24-.13-.49-.16-.73-.25-2.87-2-3.35-4.43-2.85-3.98,.8-7.54,2.59-10.92,4.74-1.36,.87-2.5,1.09-4.14,.71-8.52-1.99-17.11-1.99-25.63,0-1.63,.38-2.77,.17-4.15-.69-3.61-2.23-7.35-4.21-11.66-4.82-2.03-.29-3.19,.16-3.76,2.42-.94,3.72-1.2,7.42-.33,11.11,.36,1.51,.2,2.46-.7,3.71-11.4,15.96-3.22,37.69,15.8,42.12,1.99,.46,4.01,.85,6.17,1.31-1.18,1.93-2.55,3.37-2.79,5.27-.28,2.28-1.67,3.07-3.66,3.56-5.8,1.43-10.42-.26-13.95-5.42-2.26-3.31-4.85-6.07-9.1-6.49-1.07-.11-2.49-.36-2.96,.86-.42,1.1,.82,1.75,1.61,2.23,3.47,2.12,5.53,5.3,7.1,8.92,2.45,5.64,6.98,8.13,12.97,8.57,2.4,.18,5.64-1.51,6.92,.3,1.19,1.69,.36,4.82,.35,7.31,0,4.36-1.44,5.43-5.49,4.14-26.92-8.61-44.37-38.82-38.49-66.63,6.4-30.25,33.16-49.8,64.79-47.33,41.09,3.21,66.43,47.45,48.14,84.21-6.97,14.02-18,23.73-32.67,29.25-5.36,2.02-6.57,1.18-6.55-4.38,.01-3.37,0-6.75,.07-10.12,.11-5.03-.16-9.95-3.47-14Z"/>
    <path class="cls-1" d="M107.46,123.87c3.31,4.06,3.58,8.98,3.47,14-.08,3.37-.05,6.75-.07,10.12-.02,5.55,1.19,6.39,6.55,4.38,14.67-5.52,25.69-15.23,32.67-29.25,18.29-36.76-7.05-81.01-48.14-84.21-31.63-2.47-58.39,17.08-64.79,47.33-5.88,27.82,11.56,58.02,38.49,66.63,4.04,1.29,5.48,.22,5.49-4.14,0-2.49,.83-5.62-.35-7.31-1.28-1.82-4.52-.13-6.92-.3-5.99-.45-10.52-2.93-12.97-8.57-1.58-3.62-3.63-6.8-7.1-8.92-.79-.48-2.03-1.13-1.61-2.23,.47-1.22,1.88-.97,2.96-.86,4.26,.43,6.84,3.19,9.1,6.49,3.53,5.16,8.15,6.85,13.95,5.42,1.99-.49,3.38-1.28,3.66-3.56,.23-1.9,1.61-3.34,2.79-5.27-2.16-.46-4.17-.85-6.17-1.31-19.02-4.42-27.2-26.16-15.8-42.12,.89-1.25,1.05-2.21,.7-3.71-.87-3.69-.61-7.39,.33-11.11,.57-2.26,1.74-2.71,3.76-2.42,4.31,.62,8.05,2.59,11.66,4.82,1.38,.85,2.52,1.07,4.15,.69,8.52-1.99,17.11-1.99,25.63,0,1.64,.38,2.78,.15,4.14-.71,3.38-2.14,6.94-3.93,10.92-4.74,2.44-.49,4.19-.02,4.43,2.85,.02,.25,.08,.5,.16,.73,1.31,4.08-.82,8.45,.18,12.11,.98,3.58,4.34,6.62,4.91,10.68,2.5,17.75-4.67,31.23-23.94,33.66-.7,.09-1.51-.09-2.23,.83Z"/>
  </g>
</svg>