<?xml version="1.0" encoding="UTF-8"?>
<svg id="Layer_2" data-name="Layer 2" xmlns="http://www.w3.org/2000/svg" viewBox="0 0 511.81 499.76">
  <defs>
    <style>
      .cls-1 {
        fill: #fd9900;
      }

      .cls-2 {
        fill: #390000;
      }
    </style>
  </defs>
  <g id="Layer_1-2" data-name="Layer 1">
    <g>
      <path class="cls-2" d="M511.81,74.94V424.81c-1.66,.67-1.84,2.19-2.18,3.66-9.63,41.78-45.34,71.4-93.34,71.29-106.93-.24-213.86-.05-320.79-.14-6.63,0-13.4-.27-19.87-1.58-38.43-7.78-62.9-30.69-73.24-68.59-.47-1.71-.31-3.76-2.4-4.64V74.94c1.65-.67,1.84-2.2,2.18-3.67C11.73,29.42,47.77-.09,95,0c107.27,.21,214.53,.04,321.8,.13,6.13,0,12.37,.36,18.38,1.49,39.05,7.34,63.69,30.44,74.23,68.69,.47,1.7,.3,3.77,2.4,4.64ZM208.29,299.82c11.66,0,23.32,.13,34.97-.08,3.53-.07,5.24,.9,6.39,4.43,4.82,14.69,10.1,29.22,14.95,43.9,1.2,3.64,3.03,4.93,6.82,4.87,12.82-.19,25.64-.07,38.47-.08,6.51,0,6.81-.4,4.68-6.41-9.21-26.01-18.45-52.01-27.67-78.02-16-45.12-31.99-90.24-47.95-135.38-.97-2.75-1.69-5.12-5.56-5.08-16.98,.18-33.97,.12-50.96,.03-3.16-.02-4.59,1.04-4.48,4.33,.27,7.61-1.79,14.81-4.26,21.91-6.4,18.37-12.78,36.74-19.17,55.11-15.83,45.53-31.66,91.06-47.48,136.6-2.19,6.29-1.74,6.91,4.79,6.92,11.32,.01,22.65-.15,33.97,.08,4.17,.08,6.24-1.29,7.5-5.4,4.48-14.62,9.41-29.1,13.98-43.7,.94-3.02,2.27-4.17,5.55-4.11,11.82,.21,23.65,.08,35.47,.08Zm177.64-31.92c0-26.64-.07-53.28,.08-79.92,.02-4.13-1.24-5.56-5.4-5.49-12.32,.2-24.64,.2-36.96,0-4.06-.07-5.58,1.18-5.57,5.39,.1,53.11,.09,106.23,.02,159.34,0,4.2,1.35,5.96,5.79,5.88,11.98-.23,23.98-.28,35.96,.03,4.9,.13,6.21-1.57,6.18-6.3-.19-26.31-.09-52.61-.09-78.92Zm2.98-130.45c0-15.82-10.47-26.4-26.14-26.44-15.4-.04-26.91,11.35-26.9,26.62,.01,16.05,10.95,27.04,26.87,27.02,15.3-.02,26.17-11.32,26.17-27.21Z"/>
      <path class="cls-1" d="M208.29,299.83c-11.82,0-23.65,.13-35.47-.08-3.28-.06-4.61,1.1-5.55,4.11-4.57,14.59-9.5,29.08-13.98,43.7-1.26,4.11-3.33,5.48-7.5,5.4-11.32-.23-22.65-.07-33.97-.08-6.53,0-6.97-.62-4.79-6.92,15.82-45.54,31.65-91.07,47.48-136.6,6.39-18.37,12.77-36.74,19.17-55.11,2.47-7.1,4.53-14.3,4.26-21.91-.12-3.29,1.32-4.35,4.48-4.33,16.99,.09,33.97,.14,50.96-.03,3.88-.04,4.59,2.33,5.56,5.08,15.96,45.13,31.96,90.26,47.95,135.38,9.22,26.01,18.46,52.01,27.67,78.02,2.13,6.01,1.83,6.41-4.68,6.41-12.82,.01-25.65-.12-38.47,.08-3.79,.06-5.62-1.24-6.82-4.87-4.85-14.68-10.13-29.21-14.95-43.9-1.15-3.52-2.86-4.49-6.39-4.43-11.65,.22-23.31,.08-34.97,.08Zm.23-130.19c-1.47,.12-1.46,.89-1.64,1.48-8.24,27.18-16.44,54.37-24.75,81.53-1.01,3.29,.02,3.97,3.17,3.95,15.14-.12,30.28-.17,45.42,.02,3.93,.05,4.33-1.05,3.23-4.53-5.99-19.01-11.79-38.08-17.65-57.13-2.61-8.48-5.21-16.97-7.78-25.33Z"/>
      <path class="cls-1" d="M385.93,267.9c0,26.31-.1,52.62,.09,78.92,.03,4.73-1.28,6.43-6.18,6.3-11.98-.31-23.98-.25-35.96-.03-4.44,.08-5.8-1.68-5.79-5.88,.07-53.11,.08-106.23-.02-159.34,0-4.2,1.51-5.45,5.57-5.39,12.32,.2,24.64,.21,36.96,0,4.16-.07,5.42,1.36,5.4,5.49-.15,26.64-.08,53.28-.08,79.92Z"/>
      <path class="cls-1" d="M388.91,137.45c0,15.88-10.87,27.19-26.17,27.21-15.92,.02-26.86-10.98-26.87-27.02-.01-15.27,11.5-26.66,26.9-26.62,15.67,.04,26.13,10.62,26.14,26.44Z"/>
      <path class="cls-2" d="M208.52,169.63c2.57,8.36,5.17,16.85,7.78,25.33,5.86,19.05,11.65,38.12,17.65,57.13,1.1,3.47,.7,4.58-3.23,4.53-15.14-.19-30.28-.15-45.42-.02-3.15,.03-4.18-.66-3.17-3.95,8.31-27.16,16.51-54.35,24.75-81.53,.18-.59,.17-1.36,1.64-1.48Z"/>
    </g>
  </g>
</svg>