<?xml version="1.0" encoding="UTF-8"?>
<svg id="Layer_2" data-name="Layer 2" xmlns="http://www.w3.org/2000/svg" viewBox="0 0 511.81 511.81">
  <defs>
    <style>
      .cls-1 {
        fill: #8e9dd0;
      }

      .cls-2 {
        fill: #f0f0f1;
      }
    </style>
  </defs>
  <g id="Layer_1-2" data-name="Layer 1">
    <g>
      <path class="cls-1" d="M282.89,511.81h-52.98c-.16-2.85-2.49-1.71-3.82-1.84-7.95-.75-15.79-2.2-23.58-3.88-48.85-10.54-91.08-33.43-126.65-68.5-16.17-15.94-30.19-33.6-41.15-53.57,7.93-.61,8.04-.59,9.59-8.62,2.79-14.5,5.55-29.02,8.09-43.57,.64-3.68,2.17-4.86,5.89-4.83,17.81,.13,35.64,.35,53.44-.19,18.47-.56,34.66-7.36,47.99-20.31,14.97-14.54,22.67-32.93,27.31-52.86,2.2-9.44,3.66-18.87,1.5-28.57-6.31-28.31-27.75-46.38-57.29-46.9-30.46-.54-60.93-.1-91.4-.19-2.84,0-4.24,.89-4.76,3.74-6.98,38.2-13.97,76.4-21.12,114.58-1.55,8.26-2.15,16.72-5.09,24.7-3.86-11.3-5.41-23.05-6.99-34.81-.2-1.49,.92-3.83-1.88-4.28v-52.98c2.85-.18,1.65-2.51,1.89-3.87,1.22-7.04,1.92-14.18,3.4-21.17C28.25,95.66,115.97,15.28,225.54,1.85c1.22-.15,3.33,.69,3.37-1.85h52.98c-.06,2.64,2.12,1.71,3.31,1.86,6.93,.86,13.84,1.8,20.71,3.17,32.53,6.45,62.67,18.8,90.33,37,32.92,21.66,59.54,49.5,79.69,83.41,10.9,18.36,19.63,37.7,25.19,58.39-9.13-3.11-18.35-5.78-28.1-5.79-29.8-.03-59.6,.05-89.4-.1-3.55-.02-5.08,1.06-5.64,4.49-1.24,7.7-2.71,15.36-4.12,23.03-6.9,37.37-13.81,74.74-20.73,112.11-3.71,20.07-7.6,40.12-11.08,60.23-1.22,7.03-1.84,5.86,4.83,5.93,11.32,.11,22.65-.16,33.96,.13,4.1,.11,5.4-1.47,6.06-5.2,2.78-15.69,6-31.3,8.61-47.01,.68-4.07,2.47-4.66,5.93-4.64,17.98,.06,35.96,.17,53.94-.2,11.27-.23,21.85-3.55,31.89-8.81,7.46-3.91,13.25-9.85,19.74-14.95-.21,1.8-.28,3.64-.66,5.4-3.77,17.42-9.2,34.3-16.41,50.61-19.25,43.49-48.39,79-87.21,106.27-35.15,24.69-74.2,39.78-117.04,44.66-1.04,.12-3.05-.58-2.79,1.81Zm28.11-183.89c5.83,0,11.68-.31,17.48,.11,4.07,.29,5.49-1.35,6.18-5.01,6.59-34.75,13.82-69.38,18.97-104.39,1.56-10.61-.86-20.14-9.23-27.65-9-8.08-19.86-11.55-31.55-11.87-17.81-.48-35.64-.26-53.47-.14-3.85,.03-4.87-.94-4.07-4.89,3.02-14.97,5.72-30.01,8.5-45.03,1.09-5.89,1.04-5.9-5.22-5.91-9.33,0-18.66,0-27.98,0-10.91,0-10.68,.04-12.66,10.93-7.45,41.01-15.06,81.99-22.61,122.97-4.15,22.54-8.21,45.09-12.54,67.59-.75,3.9,.48,4.36,3.88,4.31,11.82-.18,23.66-.27,35.48,.04,4,.1,5.1-1.57,5.71-4.98,6.03-33.33,12.1-66.66,18.27-99.97,2.45-13.2,2.58-13.33,16.2-13.13,10.44,.16,20.97-1.15,31.3,1.67,10.04,2.74,14.68,9.64,12.84,19.73-2.03,11.11-4.19,22.19-6.33,33.28-3.68,19.08-7.33,38.16-11.1,57.22-.77,3.91,.29,5.41,4.47,5.18,5.81-.31,11.66-.08,17.49-.08Z"/>
      <path class="cls-2" d="M507,303.05c-6.49,5.1-12.29,11.04-19.74,14.95-10.04,5.26-20.61,8.58-31.89,8.81-17.97,.37-35.96,.25-53.94,.2-3.46-.01-5.25,.57-5.93,4.64-2.61,15.71-5.83,31.33-8.61,47.01-.66,3.72-1.96,5.31-6.06,5.2-11.31-.3-22.64-.02-33.96-.13-6.66-.07-6.04,1.1-4.83-5.93,3.48-20.11,7.36-40.16,11.08-60.23,6.91-37.37,13.83-74.74,20.73-112.11,1.42-7.67,2.88-15.33,4.12-23.03,.55-3.43,2.09-4.51,5.64-4.49,29.8,.16,59.6,.08,89.4,.1,9.75,0,18.98,2.69,28.1,5.79,.36,.74,.84,1.44,1.05,2.21,3.38,12.61,6.31,25.3,7.68,38.31,.14,1.33-.8,3.55,1.95,3.56v56.98c-3.07-.68-1.77,1.92-1.9,2.92-.62,4.7-1.11,9.41-2.32,14.01-.57,.22-.85,.59-.6,1.22h.02Zm-65.38-92.13c-6.62,0-11.98,.39-17.26-.11-5.32-.5-7.56,1.49-7.72,6.67-.07,2.3-.77,4.57-1.19,6.85-4.14,22.18-8.27,44.35-12.44,66.52-.59,3.13-.28,5.03,3.76,4.94,9.65-.22,19.31,.14,28.95-.13,13.73-.39,26.12-4.09,35.74-14.82,10.48-11.7,15.33-25.62,16.12-40.9,.85-16.41-7.49-25.55-23.86-28.23-7.81-1.28-15.6-.37-22.1-.81Z"/>
      <path class="cls-2" d="M34.71,384.01c-7.9-12.13-13.64-25.31-18.67-38.82-2.94-7.9-6.06-15.76-7.17-24.21,2.94-7.97,3.54-16.44,5.09-24.7,7.15-38.17,14.13-76.37,21.12-114.58,.52-2.85,1.92-3.75,4.76-3.74,30.47,.09,60.94-.34,91.4,.19,29.54,.52,50.97,18.59,57.29,46.9,2.16,9.69,.7,19.13-1.5,28.57-4.65,19.93-12.34,38.32-27.31,52.86-13.32,12.94-29.52,19.75-47.99,20.31-17.8,.54-35.62,.32-53.44,.19-3.72-.03-5.25,1.16-5.89,4.83-2.54,14.55-5.29,29.06-8.09,43.57-1.55,8.04-1.66,8.02-9.59,8.62Zm63.71-173.09c-7.32,0-13.49,.15-19.64-.06-3.2-.11-4.34,1.19-4.84,4.2-1.37,8.35-3,16.66-4.56,24.98-3.08,16.48-6.21,32.96-9.24,49.45-1.06,5.79-.61,6.23,5.33,6.24,8.66,.01,17.32,.18,25.98-.04,13.85-.35,26.7-3.37,36.47-14.33,11.26-12.64,16.52-27.4,16.23-44.27-.24-13.4-6.25-20.96-19.09-24.45-9.19-2.49-18.52-1.4-26.63-1.72Z"/>
      <path class="cls-2" d="M311,327.92c-5.83,0-11.67-.23-17.49,.08-4.18,.23-5.24-1.28-4.47-5.18,3.77-19.06,7.42-38.15,11.1-57.22,2.14-11.09,4.3-22.17,6.33-33.28,1.84-10.08-2.79-16.98-12.84-19.73-10.33-2.82-20.86-1.51-31.3-1.67-13.63-.21-13.76-.07-16.2,13.13-6.17,33.31-12.24,66.63-18.27,99.97-.62,3.41-1.72,5.08-5.71,4.98-11.82-.31-23.65-.22-35.48-.04-3.39,.05-4.63-.41-3.88-4.31,4.33-22.5,8.39-45.06,12.54-67.59,7.55-40.99,15.16-81.97,22.61-122.97,1.98-10.89,1.75-10.93,12.66-10.93,9.33,0,18.66,0,27.98,0,6.27,0,6.31,.02,5.22,5.91-2.78,15.02-5.48,30.06-8.5,45.03-.8,3.95,.22,4.91,4.07,4.89,17.82-.12,35.65-.34,53.47,.14,11.69,.31,22.54,3.79,31.55,11.87,8.37,7.51,10.79,17.04,9.23,27.65-5.14,35.01-12.37,69.64-18.97,104.39-.69,3.66-2.11,5.31-6.18,5.01-5.8-.42-11.65-.11-17.48-.11Z"/>
      <path class="cls-1" d="M441.62,210.92c6.5,.44,14.29-.47,22.1,.81,16.38,2.68,24.72,11.82,23.86,28.23-.79,15.28-5.64,29.2-16.12,40.9-9.62,10.73-22,14.43-35.74,14.82-9.64,.27-19.3-.09-28.95,.13-4.04,.09-4.35-1.81-3.76-4.94,4.17-22.17,8.3-44.35,12.44-66.52,.43-2.28,1.12-4.56,1.19-6.85,.16-5.18,2.39-7.17,7.72-6.67,5.28,.49,10.64,.11,17.26,.11Z"/>
      <path class="cls-1" d="M507.58,301.83c.11,.56,.07,1.04-.6,1.22-.25-.63,.03-1,.6-1.22Z"/>
      <path class="cls-1" d="M98.42,210.92c8.12,.33,17.44-.77,26.63,1.72,12.84,3.48,18.86,11.05,19.09,24.45,.3,16.87-4.97,31.63-16.23,44.27-9.76,10.96-22.62,13.97-36.47,14.33-8.65,.22-17.32,.05-25.98,.04-5.94,0-6.39-.45-5.33-6.24,3.03-16.49,6.16-32.96,9.24-49.45,1.55-8.32,3.19-16.63,4.56-24.98,.49-3.01,1.64-4.3,4.84-4.2,6.15,.21,12.32,.06,19.64,.06Z"/>
    </g>
  </g>
</svg>