<?xml version="1.0" encoding="UTF-8"?>
<svg id="Layer_2" data-name="Layer 2" xmlns="http://www.w3.org/2000/svg" viewBox="0 0 511.81 499.55">
  <defs>
    <style>
      .cls-1 {
        fill: #00005b;
      }

      .cls-2 {
        fill: #9898fd;
      }
    </style>
  </defs>
  <g id="Layer_1-2" data-name="Layer 1">
    <g>
      <path class="cls-1" d="M511.81,74.87V424.73c-1.88,.49-1.79,2.15-2.16,3.57-11.4,44.25-46.03,71.2-91.81,71.22-107.96,.05-215.92,.03-323.87-.03-5.48,0-11.02-.34-16.42-1.2-38.09-6.08-66.08-32.01-75.3-69.48-.38-1.54-.13-3.47-2.24-4.07V74.87c2.11-.61,1.86-2.53,2.24-4.07C12.65,28.42,48.08,.18,91.85,.12c109.37-.16,218.74-.16,328.11,0,43.78,.06,79.1,28.22,89.6,70.69,.38,1.54,.12,3.47,2.25,4.06ZM121.62,240.81c0,35.32,.07,70.63-.09,105.95-.02,4.66,1.1,6.46,6.09,6.3,11.32-.35,22.66-.36,33.98,0,5.24,.17,6.44-1.77,6.38-6.65-.24-19.49-.15-38.98-.07-58.47,.03-6.59-1.62-6.43,6.39-6.2,17.35,.49,34.61,.29,51.62-3.93,32.91-8.17,54.23-33.42,56.6-68.88,2.12-31.7-11.96-59.46-44.84-73.52-16.12-6.89-33.13-8.41-50.37-8.19-19.82,.26-39.63,1.06-59.45,1.16-5.15,.03-6.38,1.52-6.35,6.49,.2,35.31,.11,70.63,.11,105.95Zm235.57-36.64c-.23-6-.94-11.07-2-16.11-.88-4.22-3.03-6.28-7.55-6.21-10.82,.17-21.66,.2-32.48-.02-4.02-.08-4.64,1.56-4.46,5.09,.56,11.14,1.09,22.3,1.13,33.45,.15,41.97,.09,83.95,.11,125.92,0,6.6,.05,6.65,6.74,6.66,11.66,.01,23.33-.23,34.98,.11,4.97,.14,6.59-1.21,6.55-6.38-.23-32.48,.2-64.96-.35-97.43-.13-7.73,3.04-11.68,9.09-14.72,1.19-.6,2.38-1.2,3.6-1.71,11.98-5.04,24.47-7.53,37.45-7.19,4.09,.11,5.6-1.32,5.53-5.49-.2-12.16-.2-24.32,0-36.47,.07-4.3-1.65-5.36-5.68-5.22-14.85,.52-27.93,5.74-39.64,14.56-4.34,3.26-8.27,7.06-13.03,11.17Z"/>
      <path class="cls-2" d="M121.62,240.81c0-35.32,.1-70.63-.11-105.95-.03-4.97,1.21-6.46,6.35-6.49,19.82-.1,39.63-.9,59.45-1.16,17.24-.22,34.25,1.3,50.37,8.19,32.88,14.06,46.95,41.82,44.84,73.52-2.37,35.46-23.69,60.71-56.6,68.88-17.01,4.22-34.27,4.43-51.62,3.93-8.02-.23-6.37-.39-6.39,6.2-.08,19.49-.17,38.98,.07,58.47,.06,4.88-1.14,6.82-6.38,6.65-11.32-.36-22.66-.35-33.98,0-4.99,.15-6.11-1.64-6.09-6.3,.17-35.31,.09-70.63,.09-105.95Zm46.38-35.55c0,10.66,.08,21.32-.05,31.98-.04,2.8,.45,4.35,3.7,4.39,11.32,.14,22.64,.53,33.82-1.91,19.94-4.34,30.85-16.88,30.7-35.46-.15-18.42-10.56-30.07-30.77-33.96-11.55-2.22-23.25-.86-34.89-.82-2.86,0-2.51,1.96-2.51,3.78,0,10.66,0,21.32,0,31.98Z"/>
      <path class="cls-2" d="M357.19,204.16c4.76-4.11,8.69-7.91,13.03-11.17,11.71-8.82,24.79-14.04,39.64-14.56,4.03-.14,5.75,.92,5.68,5.22-.19,12.16-.2,24.32,0,36.47,.07,4.17-1.45,5.6-5.53,5.49-12.99-.34-25.48,2.15-37.45,7.19-1.22,.52-2.41,1.11-3.6,1.71-6.05,3.04-9.22,7-9.09,14.72,.55,32.47,.12,64.96,.35,97.43,.04,5.17-1.58,6.53-6.55,6.38-11.65-.34-23.32-.1-34.98-.11-6.69,0-6.74-.06-6.74-6.66-.02-41.97,.03-83.95-.11-125.92-.04-11.15-.57-22.31-1.13-33.45-.18-3.53,.44-5.17,4.46-5.09,10.82,.23,21.65,.2,32.48,.02,4.53-.07,6.67,1.99,7.55,6.21,1.06,5.04,1.77,10.11,2,16.11Z"/>
      <path class="cls-1" d="M168,205.26c0-10.66,0-21.32,0-31.98,0-1.82-.35-3.78,2.51-3.78,11.64-.04,23.35-1.4,34.89,.82,20.21,3.88,30.62,15.54,30.77,33.96,.15,18.58-10.75,31.12-30.7,35.46-11.19,2.44-22.5,2.05-33.82,1.91-3.24-.04-3.73-1.59-3.7-4.39,.13-10.66,.05-21.32,.05-31.98Z"/>
    </g>
  </g>
</svg>