<?xml version="1.0" encoding="UTF-8"?>
<svg id="Layer_2" data-name="Layer 2" xmlns="http://www.w3.org/2000/svg" viewBox="0 0 511.8 499.64">
  <defs>
    <style>
      .cls-1 {
        fill: #001834;
      }

      .cls-2 {
        fill: #00a7fd;
      }
    </style>
  </defs>
  <g id="Layer_1-2" data-name="Layer 1">
    <g>
      <path class="cls-1" d="M511.8,74.89V424.75c-1.88,.77-1.88,2.57-2.29,4.15-11.27,43.5-46.24,70.69-91.22,70.71-108.27,.05-216.53,.04-324.8-.05-5.96,0-12.04-.38-17.87-1.56-38.44-7.81-62.9-30.71-73.23-68.61-.47-1.71-.31-3.76-2.4-4.64V73.89c2.13-.78,2.14-2.83,2.61-4.53C14.48,26.53,49.03,.05,93.43,.03,201.71-.02,310,0,418.28,.07c5.8,0,11.72,.32,17.39,1.45,38.67,7.69,63.33,30.61,73.73,68.72,.47,1.71,.31,3.76,2.4,4.64ZM115.08,240.32c0,35.64,.06,71.28-.07,106.93-.02,4.26,1.14,5.91,5.63,5.81,11.49-.27,22.99-.34,34.47,.03,5.24,.17,6.47-1.74,6.42-6.63-.23-19.82,.06-39.64-.21-59.46-.06-4.59,1.42-5.55,5.67-5.37,14.31,.62,28.6,.5,42.84-1.77,37.32-5.94,66.69-30.94,66.46-75.59-.12-23.96-8.12-44.34-27.7-59.17-14.69-11.12-31.72-15.88-49.78-17.19-25.8-1.86-51.6,.36-77.4,.5-5.06,.03-6.48,1.43-6.44,6.49,.21,35.14,.11,70.28,.11,105.43Zm184.03,85.01c0,5.33,.2,10.67-.06,15.98-.21,4.15,1.5,6.35,5.3,7.85,17.84,7.04,36.41,8.94,55.37,8.11,11.56-.5,22.86-2.54,33.36-7.59,17.52-8.43,28.09-22.05,29.79-41.74,1.79-20.75-6.86-36.02-24.87-46.27-8.26-4.7-16.71-8.92-25.66-12.14-6.74-2.43-13.29-5.33-19.51-8.87-4.82-2.74-9.6-6-8.63-12.69,.77-5.32,4.87-8.08,12.73-9.16,.33-.05,.66-.08,.99-.11,17.07-1.27,33.48,1.37,49.13,8.39,6.1,2.74,7.3,2.03,7.31-4.69,.02-9.66-.1-19.32,.05-28.97,.07-4.07-1.37-6.37-5.42-7.66-16.43-5.24-33.28-6.21-50.33-5.38-11.44,.55-22.32,3.24-32.49,8.7-31.86,17.11-37.63,63.31-3.37,85.13,10.17,6.48,21.08,11.26,32.25,15.64,6.18,2.42,12.55,4.63,17.63,9.13,6.87,6.08,5.24,14.44-3.38,17.52-4.26,1.52-8.74,2.1-13.25,2.15-18.3,.17-35.64-3.72-51.83-12.39-4.38-2.35-5.01-1.97-5.08,3.08-.07,5.33-.02,10.66-.02,15.98Z"/>
      <path class="cls-2" d="M115.08,240.32c0-35.14,.1-70.29-.11-105.43-.03-5.06,1.38-6.46,6.44-6.49,25.8-.14,51.59-2.37,77.4-.5,18.06,1.31,35.09,6.06,49.78,17.19,19.58,14.83,27.58,35.21,27.7,59.17,.23,44.66-29.14,69.65-66.46,75.59-14.24,2.27-28.53,2.39-42.84,1.77-4.25-.18-5.73,.78-5.67,5.37,.27,19.82-.02,39.64,.21,59.46,.06,4.89-1.18,6.8-6.42,6.63-11.48-.37-22.98-.29-34.47-.03-4.5,.1-5.65-1.55-5.63-5.81,.13-35.64,.07-71.28,.07-106.93Zm46.65-35.11c0,10.31,.25,20.64-.12,30.94-.17,4.6,1.57,5.74,5.69,5.6,5.98-.21,11.99,.18,17.96-.14,10.03-.53,19.8-2.33,28.66-7.49,7-4.08,12.27-9.58,14.63-17.55,6.56-22.13-4.85-41.13-27.4-45.84-12.05-2.52-24.19-1.18-36.3-1.29-3.29-.03-3.14,2.06-3.13,4.33,.03,10.48,.01,20.96,.01,31.44Z"/>
      <path class="cls-2" d="M299.11,325.33c0-5.33-.06-10.66,.02-15.98,.07-5.05,.7-5.43,5.08-3.08,16.19,8.68,33.53,12.56,51.83,12.39,4.51-.04,8.99-.63,13.25-2.15,8.62-3.08,10.25-11.43,3.38-17.52-5.08-4.5-11.45-6.71-17.63-9.13-11.17-4.37-22.07-9.16-32.25-15.64-34.26-21.82-28.49-68.02,3.37-85.13,10.17-5.46,21.05-8.15,32.49-8.7,17.05-.82,33.9,.14,50.33,5.38,4.04,1.29,5.48,3.59,5.42,7.66-.16,9.66-.03,19.31-.05,28.97-.02,6.72-1.21,7.43-7.31,4.69-15.65-7.02-32.06-9.66-49.13-8.39-.33,.02-.66,.06-.99,.11-7.86,1.08-11.95,3.84-12.73,9.16-.97,6.69,3.81,9.95,8.63,12.69,6.21,3.53,12.77,6.44,19.51,8.87,8.95,3.22,17.4,7.44,25.66,12.14,18.01,10.25,26.66,25.52,24.87,46.27-1.7,19.7-12.27,33.31-29.79,41.74-10.5,5.05-21.8,7.09-33.36,7.59-18.96,.82-37.52-1.08-55.37-8.11-3.81-1.5-5.51-3.7-5.3-7.85,.26-5.32,.06-10.65,.06-15.98Z"/>
      <path class="cls-1" d="M161.73,205.21c0-10.48,.02-20.96-.01-31.44,0-2.27-.16-4.36,3.13-4.33,12.11,.11,24.25-1.23,36.3,1.29,22.55,4.72,33.96,23.71,27.4,45.84-2.36,7.97-7.63,13.47-14.63,17.55-8.86,5.16-18.63,6.96-28.66,7.49-5.97,.32-11.98-.08-17.96,.14-4.12,.15-5.86-1-5.69-5.6,.37-10.3,.12-20.62,.12-30.94Z"/>
    </g>
  </g>
</svg>