<?xml version="1.0" encoding="UTF-8"?>
<svg id="Layer_2" data-name="Layer 2" xmlns="http://www.w3.org/2000/svg" viewBox="0 0 447.86 511.83">
  <defs>
    <style>
      .cls-1 {
        fill: #c9d0d7;
      }

      .cls-2 {
        fill: #fefcfb;
      }

      .cls-3 {
        fill: #f05642;
      }

      .cls-4 {
        fill: #afb6bc;
      }

      .cls-5 {
        fill: #e1e4e6;
      }
    </style>
  </defs>
  <g id="Layer_1-2" data-name="Layer 1">
    <g>
      <path class="cls-5" d="M424.86,511.83H86.98c.93-2.29-1.17-1.66-2.06-2.04-12.82-5.46-20.14-15.08-20.77-29.01-.49-10.95-.03-21.94,0-32.91,100.02,0,200.03-.01,300.05-.02,1.5,0,3,.06,4.49-.02,8.23-.41,14.8-6.84,15.13-15.05,.18-4.48-.1-8.98-.17-13.47,.07-2.66,.21-5.32,.21-7.98,.01-50.44,.01-100.88,0-151.31,0-14.58-5.57-20.11-20.27-20.11-97.71,0-195.42,0-293.13,0-2.16,0-4.32-.1-6.48-.15,0-68.4-.01-136.8,0-205.2,0-16.29,6.79-26.35,21.89-32.75,.69-.29,2.25-.3,1.09-1.81h232.92c0,31.08,0,62.15,0,93.23,0,20.55,12.53,33.79,32.92,34.83,.23,2.02,1.82,3.11,3.09,4.38,29.12,29.14,58.26,58.28,87.4,87.4,1.27,1.27,2.31,2.9,4.36,3.11,.06,.5,.16,.99,.16,1.49,0,84.93,.1,169.87-.07,254.8-.03,14.77-7.47,25.12-21.34,30.64-.87,.35-2.46,.17-1.57,1.96Z"/>
      <path class="cls-4" d="M320.89,0c.55,1.88,2.23,2.83,3.49,4.08,39.9,39.96,79.84,79.88,119.75,119.84,1.26,1.26,2.94,2.19,3.5,4.06-31.6,.02-63.21,.05-94.81,.07-20.39-1.05-32.91-14.28-32.92-34.83,0-31.08,0-62.15,0-93.23h1Z"/>
      <path class="cls-3" d="M63.98,432.02c-15.31-.05-30.62-.09-45.92-.16-11.56-.05-18.03-6.39-18.04-17.82C0,361.94,0,309.84,.02,257.75c0-11.43,6.48-17.77,18.04-17.82,15.31-.07,30.62-.11,45.92-.16,2.16,.05,4.32,.15,6.48,.15,97.71,0,195.42,0,293.13,0,14.7,0,20.27,5.53,20.27,20.11,0,50.44,0,100.88,0,151.31,0,2.66-.14,5.32-.21,7.98-3.37,9.22-10.16,12.62-19.73,12.61-97.82-.12-195.64-.07-293.45-.06-2.16,0-4.32,.1-6.48,.15Zm178.1-89.99c.2-12.44-2.13-22.8-9.23-31.33-13.66-16.43-31.41-21.32-51.6-15.61-19.12,5.41-31.06,18.21-33.75,38.3-2.33,17.37,2.53,32.53,16.93,43.26,15.72,11.71,33.13,13.91,51.27,6.07,3.38-1.46,5.38-1.67,8.26,.71,4.73,3.92,8.69,3.8,11.98,.42,3.2-3.28,3.17-7.35-.5-12-1.46-1.85-1.76-3.23-.42-5.25,5.2-7.89,7.19-16.69,7.06-24.57Zm-143.52,44.63c4.76-.29,9.23-.78,13.56-2,13.28-3.77,21.4-13.68,21.52-26.1,.11-11.59-6.3-19.19-20.28-23.91-7.55-2.55-15.21-4.82-22.7-7.52-6.27-2.27-9-6.17-8.31-10.92,.7-4.85,4.99-8.56,10.94-9.34,7.85-1.03,15.18,.6,22.18,4.21,5.01,2.59,8.61,1.95,10.92-1.65,2.37-3.71,1.17-7.98-3.17-11.21-12.47-9.3-36.32-8.88-48.4,.86-13.14,10.59-11.6,30.79,3.06,39.1,5.67,3.21,11.94,4.96,18.16,6.81,5.24,1.56,10.67,2.74,15.38,5.69,7.14,4.47,7.22,12.59,.17,17.06-1.96,1.24-4.13,2.07-6.49,2.44-10.23,1.6-19.43-1.35-28.06-6.49-3.01-1.8-5.79-2.35-8.82-.32-4.94,3.32-4.61,10.73,.83,14.84,8.81,6.66,19.22,7.81,29.5,8.45Zm162.45-47.34c0,11.32-.03,22.64,.01,33.97,.03,7.9,2.66,10.56,10.45,10.59,12.65,.04,25.31,.03,37.96-.01,1.65,0,3.35-.1,4.94-.51,3.97-1.01,6.47-3.58,6.45-7.78-.02-4.14-2.32-6.89-6.38-7.82-2.08-.48-4.27-.67-6.41-.69-8.82-.07-17.66-.26-26.47,.07-4.12,.16-4.9-1.31-4.86-5.07,.18-18.48,.1-36.96,.05-55.44,0-1.97-.08-4.05-.67-5.9-1.58-5.01-6.91-6.85-11.26-4.06-3.18,2.04-3.84,5.2-3.83,8.69,.03,11.32,.01,22.64,.01,33.97Z"/>
      <path class="cls-1" d="M63.98,432.02c2.16-.05,4.32-.15,6.48-.15,97.82,0,195.64-.05,293.45,.06,9.57,.01,16.36-3.39,19.73-12.61,.07,4.49,.35,8.99,.17,13.47-.33,8.21-6.9,14.63-15.13,15.05-1.49,.08-2.99,.02-4.49,.02-100.02,0-200.03,.01-300.05,.02-.06-5.28-.11-10.57-.17-15.85Z"/>
      <path class="cls-1" d="M352.82,128.06c31.6-.02,63.21-.05,94.81-.07,.07,24.36,.17,48.72,.21,73.09,.01,7.29-.11,14.58-.17,21.87-2.04-.2-3.09-1.84-4.36-3.11-29.15-29.12-58.28-58.26-87.4-87.4-1.27-1.27-2.86-2.36-3.09-4.38Z"/>
      <path class="cls-2" d="M242.08,342.03c.13,7.88-1.86,16.69-7.06,24.57-1.34,2.03-1.04,3.4,.42,5.25,3.67,4.65,3.7,8.71,.5,12-3.29,3.37-7.26,3.5-11.98-.42-2.88-2.39-4.88-2.17-8.26-.71-18.14,7.84-35.54,5.64-51.27-6.07-14.4-10.72-19.25-25.89-16.93-43.26,2.69-20.1,14.63-32.89,33.75-38.3,20.19-5.72,37.93-.82,51.6,15.61,7.1,8.53,9.43,18.89,9.23,31.33Zm-33.68,25.95c-4.5-4.19-8.53-7.85-12.45-11.62-4.75-4.54-5.17-9.52-1.28-13.57,3.75-3.91,8.45-3.68,13.2,.82,3.38,3.21,6.83,6.39,9.84,9.94,3.23,3.81,4.63,2.18,5.9-1.38,1.94-5.43,2.41-10.92,1.57-16.68-1.83-12.54-8.85-20.83-20.72-24.3-13.02-3.8-24.79-.91-33.94,9.61-7.2,8.28-8.47,22.4-3.29,32.47,7.44,14.47,22.16,19.98,41.16,14.71Z"/>
      <path class="cls-2" d="M98.56,386.66c-10.28-.65-20.69-1.8-29.5-8.45-5.44-4.11-5.77-11.52-.83-14.84,3.03-2.04,5.8-1.48,8.82,.32,8.63,5.14,17.82,8.08,28.06,6.49,2.36-.37,4.53-1.2,6.49-2.44,7.05-4.47,6.97-12.59-.17-17.06-4.71-2.95-10.14-4.13-15.38-5.69-6.22-1.85-12.49-3.6-18.16-6.81-14.66-8.3-16.2-28.5-3.06-39.1,12.08-9.74,35.93-10.16,48.4-.86,4.33,3.23,5.54,7.5,3.17,11.21-2.31,3.6-5.9,4.24-10.92,1.65-7-3.61-14.34-5.25-22.18-4.21-5.94,.78-10.23,4.49-10.94,9.34-.69,4.75,2.04,8.66,8.31,10.92,7.5,2.71,15.15,4.98,22.7,7.52,13.98,4.72,20.39,12.31,20.28,23.91-.12,12.43-8.24,22.34-21.52,26.1-4.33,1.23-8.8,1.72-13.56,2Z"/>
      <path class="cls-2" d="M261.02,339.32c0-11.32,.02-22.64-.01-33.97,0-3.49,.65-6.65,3.83-8.69,4.34-2.79,9.68-.95,11.26,4.06,.59,1.86,.66,3.93,.67,5.9,.05,18.48,.13,36.96-.05,55.44-.04,3.76,.74,5.23,4.86,5.07,8.81-.33,17.64-.14,26.47-.07,2.14,.02,4.33,.21,6.41,.69,4.06,.93,6.36,3.67,6.38,7.82,.02,4.21-2.48,6.77-6.45,7.78-1.59,.4-3.29,.5-4.94,.51-12.65,.04-25.31,.05-37.96,.01-7.79-.02-10.42-2.69-10.45-10.59-.04-11.32-.01-22.64-.01-33.97Z"/>
      <path class="cls-3" d="M208.4,367.98c-19.01,5.27-33.72-.23-41.16-14.71-5.18-10.07-3.92-24.18,3.29-32.47,9.15-10.52,20.92-13.41,33.94-9.61,11.87,3.47,18.89,11.76,20.72,24.3,.84,5.76,.37,11.25-1.57,16.68-1.27,3.55-2.67,5.18-5.9,1.38-3.01-3.54-6.46-6.73-9.84-9.94-4.75-4.5-9.45-4.73-13.2-.82-3.89,4.06-3.47,9.03,1.28,13.57,3.93,3.76,7.95,7.43,12.45,11.62Z"/>
    </g>
  </g>
</svg>